<?xml version="1.0" standalone="no"?>
<!DOCTYPE svg PUBLIC "-//W3C//DTD SVG 20010904//EN"
 "http://www.w3.org/TR/2001/REC-SVG-20010904/DTD/svg10.dtd">
<svg version="1.0" xmlns="http://www.w3.org/2000/svg"
 width="629.000000pt" height="629.000000pt" viewBox="0 0 629.000000 629.000000"
 preserveAspectRatio="xMidYMid meet">
<metadata>
Created by potrace 1.16, written by Peter Selinger 2001-2019
</metadata>
<g transform="translate(0.000000,629.000000) scale(0.100000,-0.100000)"
fill="#000000" stroke="none">
<path d="M0 3145 l0 -3145 3145 0 3145 0 0 3145 0 3145 -3145 0 -3145 0 0
-3145z m3407 2630 c499 -66 936 -247 1332 -555 109 -85 340 -311 428 -420 356
-442 554 -952 595 -1537 35 -491 -91 -1049 -334 -1477 -162 -286 -411 -580
-659 -780 -294 -237 -649 -418 -991 -506 -297 -77 -366 -85 -703 -85 -333 0
-407 9 -690 81 -182 46 -298 89 -490 184 -185 90 -291 155 -453 277 -126 95
-369 330 -472 457 -226 279 -414 656 -506 1012 -61 240 -78 385 -78 674 0 214
4 278 22 399 45 286 121 527 247 786 139 285 277 477 515 716 231 232 416 367
689 503 293 147 548 226 876 270 143 20 524 20 672 1z"/>
<path d="M2850 5659 c-503 -43 -995 -244 -1400 -571 -52 -42 -149 -132 -216
-199 -371 -380 -612 -862 -701 -1404 -14 -88 -18 -166 -18 -390 0 -249 3 -294
24 -410 46 -261 107 -453 214 -680 328 -696 965 -1218 1708 -1399 214 -52 375
-70 614 -70 287 0 494 30 755 111 675 207 1254 705 1556 1338 114 240 175 430
221 693 25 143 27 179 28 412 0 164 -5 287 -13 345 -89 590 -330 1076 -736
1481 -540 538 -1280 808 -2036 743z m301 -930 c100 -22 119 -48 325 -462 106
-211 184 -380 184 -396 0 -34 -47 -81 -81 -81 -13 0 -35 7 -47 16 -14 9 -96
161 -207 385 -199 398 -199 397 -263 370 -23 -10 -55 -70 -207 -377 -98 -201
-188 -372 -199 -380 -52 -36 -131 5 -129 67 1 43 338 732 384 784 34 39 75 64
124 76 44 10 59 10 116 -2z m-726 -974 c32 -31 32 -75 2 -110 -21 -25 -35 -28
-425 -84 -436 -62 -432 -61 -448 -125 -7 -28 6 -42 295 -325 285 -280 302
-298 301 -332 0 -57 -56 -98 -107 -78 -14 5 -159 139 -321 297 -223 217 -300
298 -315 332 -27 60 -27 152 1 206 27 53 91 110 139 124 47 14 752 117 811
119 33 1 48 -5 67 -24z m1807 -30 c211 -31 399 -63 419 -71 82 -35 149 -137
149 -223 0 -96 -11 -111 -337 -430 -170 -167 -315 -302 -329 -305 -31 -8 -82
18 -96 49 -22 48 -2 73 235 304 365 355 357 346 357 380 0 35 -28 68 -62 76
-13 2 -196 29 -408 59 -376 54 -386 56 -409 82 -46 54 -7 134 65 134 18 0 206
-25 416 -55z m-2017 -1170 c16 -16 25 -35 25 -57 0 -17 -30 -205 -66 -415 -62
-364 -65 -385 -49 -409 9 -14 27 -29 41 -34 29 -11 27 -12 461 216 160 85 302
154 316 154 59 0 104 -77 73 -124 -13 -21 -524 -299 -710 -387 -133 -63 -273
-21 -336 101 -36 71 -34 97 34 495 36 209 71 397 76 417 19 68 89 90 135 43z
m1864 -2 c25 -26 31 -49 91 -403 35 -206 65 -395 68 -420 7 -72 -13 -126 -69
-185 -58 -61 -107 -80 -196 -73 -52 4 -94 23 -417 193 -198 104 -368 197 -378
207 -29 29 -24 92 8 117 15 12 38 21 52 21 14 0 189 -86 388 -190 l363 -191
35 15 c23 10 37 23 42 40 4 15 -22 190 -62 422 -72 422 -73 436 -24 461 39 20
69 15 99 -14z"/>
</g>
</svg>
