<?xml version="1.0" encoding="utf-8"?>
<!-- Generator: Adobe Illustrator 24.1.1, SVG Export Plug-In . SVG Version: 6.00 Build 0)  -->
<svg version="1.1" id="Layer_1" xmlns="http://www.w3.org/2000/svg" xmlns:xlink="http://www.w3.org/1999/xlink" x="0px" y="0px"
	 viewBox="0 0 283 283" style="enable-background:new 0 0 283 283;" xml:space="preserve">
<g transform="translate(0.000000,1200.000000) scale(0.100000,-0.100000)">
	<path d="M0,10584.9v-1415h1415.1h1415V10585v1415H1415H0V10584.9z M1470.5,11510.6c175-20.5,330.7-110.6,436.3-252.4
		c82.3-110.6,124.5-238.7,124.5-378.5c0-87.5-14.4-161.6-46.7-241c-43.2-105.4-113.9-196.5-207.8-267.2
		c-67.2-50.9-141-86.3-220.3-106.1c-62.3-15.6-98.3-20-159.7-20c-131.1,0-255.7,38.7-361.1,112.5
		c-105.2,73.6-187.7,178.5-231.1,293.2c-30.4,80.4-41.5,141-41.5,228.8c0,88.9,11.8,152.1,43.9,235.1
		c44.8,115.6,133.5,224.5,241.5,296.2c78.8,52.1,176.2,87.7,272.9,99.3C1358.2,11514.9,1433,11514.9,1470.5,11510.6z
		 M1120.9,10066.6l11.1-5.7v-13.9v-13.9h-15.1c-13.9,0-15.3,0.5-16,5.4c-0.5,4.2-2.4,5.4-9.4,5.9c-8.5,0.7-18.4-2.6-18.4-6.1
		c0.2-5.9,5.9-8.5,21.2-10.1c20.5-2.4,32.3-7.8,39.4-18.4c11.6-17.2,4.5-38.9-15.8-49.3c-9.2-4.7-13.4-5.4-33-4.7
		c-17.5,0.5-24.8,1.9-33.3,6.1c-10.6,5.2-10.8,5.7-12.5,18.4c-1.9,17.2,0.2,19.8,16.5,19.8c12.3,0,12.7-0.2,14.6-7.5
		c1.9-7.5,2.4-7.8,14.9-8.5c13.9-0.7,20.5,3.1,17.9,9.9c-1.7,4-15.8,8.5-27.4,8.5c-12,0-28.1,8.5-32.5,17.5
		c-2.1,4-3.8,11.6-3.8,16.7c0,14.4,5.9,23.3,20,30.7c11.1,5.4,14.6,6.1,31.4,5.4C1104.7,10072.2,1112.7,10070.6,1120.9,10066.6z
		 M1250,10048.4v-22.4h-13.9c-14.4,0-16.7,1.7-16.7,12c0,2.4-1.7,4.5-3.5,4.5c-3.1,0-3.5-5-3.5-29.5v-29.7l6.6,0.7
		c6.4,0.7,6.4,0.5,6.4-12.3v-13l-29.7-0.7l-29.7-0.7l-1.4,11.3c-1.4,13.4-0.7,14.9,6.8,14.9h5.7v29.5c0,24.1-0.7,29.5-3.3,29.5
		c-2.4,0-3.8-3.1-4.2-8.7l-0.7-9l-11.8,0.7c-18.2,0.7-17.7,0.2-17.7,24.1v21.2h55.4h55.4v-22.4H1250z M1342.9,10044.4
		c6.8-14.6,13.4-29.2,14.4-32.5c4.5-14.4,13-28.1,18.2-28.8c4.7-0.7,5.4-2.4,6.1-13l0.7-12.5h-29.5h-29.7v10.6
		c0,8.3,0.9,11.1,5,13.2c8.3,4.2,1.4,7.8-17.7,8.5c-14.2,0.5-17.7,0-18.9-3.1c-0.9-2.6,0.2-4.2,3.3-5c4-0.9,4.7-3.3,4.7-12.7v-11.6
		H1270h-29.5v13c0,12.3,0.2,13,6.1,13c5.4,0,7.3,2.8,18.9,27.1c7.1,14.9,12.7,28.8,12.7,30.7s-2.1,3.5-4.7,3.5
		c-4.2,0-4.7,1.7-4.7,13v13h30.7h30.7L1342.9,10044.4z M1486,10065.4c4.2-2.8,10.4-9,13.2-13.2c10.1-15.1,5-44.1-8.5-48.6
		c-6.1-1.9-6.1-4.5,0-13.2c3.3-4.7,6.8-6.8,11.6-6.8c8,0,9.9-4.2,8-16.7l-1.7-9.2h-23.1h-23.3v8.5c0,10.4-12.3,29.2-18.9,29.2
		c-3.8,0-4.7-1.7-4.7-7.1c0-5.9,0.9-7.1,5.9-7.1c7.3,0,9.2-4.2,7.3-15.3l-1.7-8.3h-30.4h-30.4l0.7,11.6c0.9,14.2,2.4,16.7,8.5,15.1
		c4.5-1.2,4.7,0,4.7,30c0,27.8-0.5,30.9-3.8,29.7c-6.4-2.4-10.4,3.1-10.4,13.9c0,5.4,0.7,10.6,1.7,11.3c0.7,0.9,20.8,1.7,44.3,1.7
		C1475.9,10070.8,1478.5,10070.6,1486,10065.4z M1611.7,10067.5c4.2-1.7,9.9-6.1,12.7-9.7c3.3-4,5.4-5.2,5.4-3.3
		c0.2,1.9,0.7,5,0.9,6.8c0.2,1.9,0.7,5,0.9,6.6c0.2,2.1,7.8,2.8,29.7,2.8h29.5v-12.5c0-6.8-1.2-13.7-2.6-15.1
		c-1.9-1.9-1.7-4,0.7-7.5c4-6.4,6.1-6.4,9.4,0.9c2.1,4.5,2.1,6.6,0,8.7c-3.1,3.1-3.5,11.8-1.4,20.3c1.4,5.2,2.1,5.4,30.2,4.7
		l28.5-0.7v-11.8c0-11.1-0.5-11.8-6.6-13c-5.2-0.9-9.7-5.9-21.7-24.5c-17-25.7-19.8-36.8-9.7-36.8c6.6,0,7.8-3.5,6.6-17l-0.9-9
		h-30.4h-30.4v13c0,13.2,0.7,14.2,10.1,13.2c3.1-0.5,4,1.2,4,6.4c0,9.9-31.8,54.7-38.7,54.7c-4.5,0-5-1.2-4.2-8
		c1.4-11.8-3.5-24.1-12.5-31.6l-8-6.4l5-7.8c3.8-6.1,6.4-7.5,12.7-7.5h8v-13v-13h-24.8h-24.8v8.5c0,9.2-2.8,15.8-10.1,24.1
		c-6.8,7.3-11.1,6.6-11.1-1.9c0-5.9,0.9-7.1,5.9-7.1c5.4,0,5.9-0.7,5.9-11.8v-11.8h-30.7h-30.9l0.7,13.7c0.7,12.5,1.2,13.4,6.6,13.4
		h5.9l0.7,30.2l0.7,30.2l-6.6-0.7c-6.4-0.7-6.6-0.5-7.3,13l-0.7,13.4h42.7C1592.2,10070.8,1606.1,10069.9,1611.7,10067.5z"/>
	<path d="M1338.4,11483.3c-151.6-15.6-300.9-91.7-394.8-201.4c-59.7-69.6-96.5-134.2-123.6-217c-10.6-32.1-16.3-56.4-23.1-99.1
		c-7.3-47.2-7.3-125,0-172.2c20.5-128.8,71-233.7,159.7-330.7c39.6-43.6,107.3-93.6,167.4-124.1c82.8-42,178.8-65.1,271-65.3
		c80,0,163.9,16.7,235.8,47.2c56.6,24.1,99.5,49.8,147.4,88.4c109.7,88.4,186.8,216,213.2,352.3c8.5,42.9,10.8,70,10.8,118.2
		c0,48.1-2.4,75.2-10.8,118.2c-13,67.2-39.6,135.8-76.6,197.2c-46,76.2-124.1,154.7-200.5,201.2c-26.9,16.5-80.7,42.7-109.2,53.1
		c-31.4,11.6-88.2,25.9-121.7,30.7C1451.4,11484.7,1369.1,11486.6,1338.4,11483.3z M1428.2,11258.7c4-2.1,10.6-7.5,14.9-12.3
		c7.5-8.7,89.1-171.9,91.5-183.3c0.9-5-0.2-8-5.9-13.7c-8-8-15.6-9-23.8-3.1c-3.8,2.6-20,33-46.7,87.3c-22.4,45.8-42.9,85.4-45.5,88
		c-5.4,5.4-15.8,6.1-21.7,1.4c-2.4-1.7-23.3-41.7-46.5-89.1c-37-75.2-43.2-86.6-49.3-88.9c-13.7-5.7-26.4,2.8-26.4,17.9
		c0,8.5,81.6,174.8,90.3,184.2C1375.7,11264.9,1406.6,11270.1,1428.2,11258.7z M1239.3,11038.7c4.5-1.9,10.6-13,10.6-19.6
		c0-2.6-2.4-7.3-5.2-10.8c-5.2-5.7-9.2-6.6-97.4-18.9c-50.5-7.3-95.3-14.6-99.5-16.5c-8.3-3.5-12-14.2-8-21.9
		c1.4-2.6,23.3-25.2,49.1-50.2c25.7-25.2,56.6-55.4,68.6-67c17.9-17.9,21.7-22.6,21.7-28.8c0-11.3-8-19.6-19.1-19.6
		c-9.2,0-11.3,1.9-79.5,68.6c-46.9,46-71.9,72.2-75.5,79.2c-14.9,28.8-0.5,65.3,30.4,77.1c9.4,3.5,174.8,28.8,192.4,29.5
		C1232,11040.1,1237.2,11039.4,1239.3,11038.7z M1665.3,11027.1c49.8-7.1,94.6-13.9,99.5-15.3c11.3-3.3,26.4-16.7,33-29.2
		c6.8-13.2,6.8-36.6,0-49.8c-5.7-11.1-141-143.9-149.8-147.2c-13-5-28.3,10.6-23.3,23.6c1.2,3.3,33,36.1,70.8,72.9
		c60.1,59,68.6,68.2,68.6,74.3c0,9.4-5.4,17-13.7,18.6c-3.5,0.7-46.7,7.3-96,14.4l-89.6,13l-6.6,7.3c-5.2,5.7-6.4,8.7-5.2,13.7
		c1.7,7.3,11.6,16.7,17.5,16.7C1572.6,11040.1,1615.3,11034.2,1665.3,11027.1z M1191,10753.6c4-2.1,7.8-6.4,8.5-9.9
		c0.9-3.5-4.7-43.4-14.4-99.1c-8.7-51.2-15.1-95.5-14.4-98.6c1.4-5.4,11.8-13,17.9-13c1.4,0,41,20.3,88,44.8
		c47.2,24.8,87.7,44.8,90.3,44.8c2.8,0,7.8-2.1,11.3-5c7.8-6.1,8.7-20.8,1.4-27.4c-5.4-5.2-162.7-88.4-174.3-92.2
		c-36.1-12.3-73.6,14.6-73.6,53.1c0,14.4,29.2,186.8,33.3,196C1169.1,10756.4,1180.1,10759.2,1191,10753.6z M1633.2,10751.7
		c5.9-5,7.1-10.1,22.9-102.8c15.8-92,16.5-98.3,13.7-110.6c-3.3-15.3-17-31.6-31.8-38.4c-10.8-5-29.7-5.7-41.5-1.7
		c-15.6,5.4-168.4,87.3-173.6,92.9c-7.5,8.3-7.1,18.6,0.9,25.9c5.2,4.7,8.3,5.9,13.9,5c4.2-0.7,43.9-20.5,88.4-44.3
		c86.6-45.8,92.9-48.1,101.4-37.7c2.6,3.1,4.5,8.3,4.5,11.6c0,3.1-6.8,46.7-15.3,96.5c-8.5,50-14.9,92.7-14.2,95
		c2.1,6.4,12.5,14.2,19.1,14.2C1624.5,10757.1,1629.9,10754.7,1633.2,10751.7z"/>
	<path d="M1307,10027.6c-4-10.8-3.8-11.1,4.5-11.1c5.7,0,7.1,0.7,5.9,3.8c-0.7,2.1-2.1,6.4-2.8,9.4
		C1312.7,10037.5,1310.3,10036.8,1307,10027.6z"/>
	<path d="M1438.6,10031.7v-13.2l13.7,1.7c7.3,0.9,14.2,2.1,15.3,2.8c0.9,0.5,1.7,4.7,1.7,9c0,9.9-4.7,13-19.8,13h-10.8
		L1438.6,10031.7L1438.6,10031.7z"/>
	<path d="M1568.3,10031.7v-13.4l12.3,1.7c14.4,1.9,18.4,4.7,18.4,12c0,8.3-7.3,13-19.6,13h-11.1L1568.3,10031.7L1568.3,10031.7z"/>
</g>
</svg>
