<?xml version="1.0" encoding="utf-8"?>
<!-- Generator: Adobe Illustrator 24.1.1, SVG Export Plug-In . SVG Version: 6.00 Build 0)  -->
<svg version="1.1" id="Layer_1" xmlns="http://www.w3.org/2000/svg" xmlns:xlink="http://www.w3.org/1999/xlink" x="0px" y="0px"
	 viewBox="0 0 537.6 537.6" style="enable-background:new 0 0 537.6 537.6;" xml:space="preserve">
<style type="text/css">
	.st0{fill:#FFFFFF;}
</style>
<g>
	<path class="st0" d="M247.6,0.2c-42.9,3.9-85.8,18-120.4,39.6c-24.1,15.1-56.9,44.9-72.5,66.1C5.2,172.6-11.6,254.7,8,333.6
		c12.4,49.6,36.9,91.8,74.3,128.1c40,38.7,87.1,62.5,142.8,72.3c57.1,10,120.2-0.6,172.2-29c10.5-5.7,30-18.7,40.4-26.9
		c10.3-8.1,33-31.1,42.1-42.5c24.7-31,44.6-73.3,52.2-111.1c9.5-46.9,7-95.6-7.3-138.7c-13.7-41.7-32.7-73.1-63-104.4
		c-22.5-23.3-45.9-40.4-73.5-53.8C361.1,14.5,339.6,7.5,311.6,3c-12.4-2-19.9-2.6-37.5-2.9C262,0,250.1,0,247.6,0.2z M298.6,13.1
		c86,9.4,162.9,63.7,201,141.9c9.2,18.8,13.9,31.2,18,47.1c11.6,45.1,11.6,87.9,0,133c-3.9,15.1-8.7,27.9-16.9,45
		c-16.2,33.7-38.7,62.6-66.7,85.7c-21.8,17.9-41.1,29.7-64.8,39.7c-34.9,14.7-67.9,20.8-107.1,19.8c-37.5-1-66.7-7.6-100-22.8
		C85.5,467.7,30.6,396.8,15.6,313.4c-7.5-41.7-4-87.6,9.7-127.2c19.3-55.6,53.6-99.9,103.5-133.4c23.4-15.8,58.3-30.1,88-36.3
		C240.1,11.7,273.2,10.3,298.6,13.1z"/>
	<path class="st0" d="M260.9,107.4c-7.3,3.9-9.1,6.7-27.8,44.2c-11.5,23.1-18.5,38.1-18.5,40c0,1.7,0.9,3.7,2.2,5
		c2.8,2.6,8.9,2.7,11.1,0.2c0.9-1,9.5-17.8,19.1-37.4c10.9-22.2,18.2-36.1,19.5-36.7c3-1.6,7.6-1.3,9.3,0.6
		c0.9,1,9.7,18.1,19.7,38.1c18.5,36.9,19.3,38.2,24.5,38.2c2.6,0,6.6-4.8,6.6-7.9c0-3.4-32.9-71.5-37.4-77.3
		c-4.2-5.6-11.2-8.8-18.7-8.8C266.4,105.7,262.9,106.3,260.9,107.4z"/>
	<path class="st0" d="M157.1,206.5c-21.4,3.2-40.6,6.5-42.5,7.3c-4.2,1.8-9.4,6.8-11.6,11.1c-0.9,1.6-1.9,5.6-2.1,8.9
		c-1,10.2,0.2,11.9,24.5,35.9c35.1,34.8,39.6,38.9,42.9,38.9c5.5-0.1,9.5-6,7.2-10.9c-0.6-1.4-13.9-15-29.6-30.1
		c-15.6-15.1-28.6-28.5-29-29.8c-0.8-3.3,0.4-7,3-8.6c1.3-0.9,17.8-3.7,41.5-7.1c21.6-3.1,40-5.9,40.8-6.2c1.7-0.6,4.4-5.4,4.4-7.8
		c0-2.5-5.5-7.5-8.2-7.4C197.1,200.8,178.6,203.4,157.1,206.5z"/>
	<path class="st0" d="M338.1,203.1c-1.6,1.5-2.5,3.6-2.5,5.5c0,3,3.7,8,5.9,8c0.6,0,18.3,2.5,39.3,5.5c42.6,6.2,43.1,6.4,43.6,13.2
		l0.3,4l-29.5,28.9c-28.1,27.5-29.6,29.1-29.6,32.6c0,2.8,0.6,4.2,2.6,5.7c5.9,4.6,6,4.5,38.2-27c32.6-31.9,34.7-34.5,34.5-43.9
		c-0.2-9.7-4.9-17.1-13.6-21.6c-2.3-1.2-80.5-13.4-85.9-13.4C340.9,200.6,339.4,201.7,338.1,203.1z"/>
	<path class="st0" d="M173.1,322.9c-2.7,2.3-3,3.7-9.6,41.3c-3.8,21.4-6.9,41.2-6.9,44c0,6,3.7,14.1,8.1,17.8
		c1.6,1.4,5.4,3.3,8.5,4.3c9,2.8,12.3,1.6,51.2-18.8c19.1-10,35.7-19.1,37-20.2c3.3-3,3.1-9.1-0.4-11.3c-1.4-1-3.8-1.7-5.2-1.7
		c-1.5,0-18.1,8.2-37.2,18.3c-19,10-35.9,18.4-37.5,18.7c-4.3,0.7-8.5-2.8-8.5-7.1c0-1.8,2.9-20.5,6.5-41.5
		c3.6-21.1,6.3-39.1,6-40.1c-0.8-2.4-3.5-4.7-6.6-5.5C176.6,320.6,175.2,321.1,173.1,322.9z"/>
	<path class="st0" d="M360.4,322.2c-5.3,2.8-5.3,2.6,1.7,43.2c3.6,20.9,6.5,39.8,6.5,42c0,3.2-0.6,4.5-2.6,6.1
		c-1.5,1.2-3.6,2.1-4.7,2.1c-1.2,0-18.1-8.4-37.6-18.7c-22.7-11.9-36.6-18.6-38.5-18.6s-3.7,0.9-5.3,2.7c-2.7,3.2-3,6.6-0.5,9.4
		c2.6,3.1,71.1,39,77.1,40.4c12,2.7,24.1-4.5,27.6-16.5c1.6-5.4,1.5-5.6-5-44.3c-3.5-21.4-6.9-40.6-7.5-42.6c-0.7-2.6-2-4.3-4-5.3
		C364.1,320.3,363.8,320.3,360.4,322.2z"/>
</g>
</svg>
